<?xml version="1.0" encoding="UTF-8"?>
<svg id="uuid-a3587a9b-7041-41b9-bee4-1413ad457811" data-name="Слой 1" xmlns="http://www.w3.org/2000/svg" viewBox="0 0 915 820">
  <defs>
    <style>
      .uuid-154c758a-fda7-475d-a598-e9d674aec64c, .uuid-5c016a58-238d-4c83-aae6-8c9c1096adfd {
        fill: #fff;
      }

      .uuid-5c016a58-238d-4c83-aae6-8c9c1096adfd {
        opacity: .05;
      }

      .uuid-cd66d17d-8401-4216-8e3e-92e7a6693688 {
        fill: #f3f3f3;
      }
    </style>
  </defs>
  <g id="uuid-99abcf5f-7ed0-48b2-88b3-682e31ff43d0" data-name="lines">
    <rect id="uuid-b08d1c41-3f77-47f8-9f46-e72beaf865e1" data-name="line-nine" class="uuid-5c016a58-238d-4c83-aae6-8c9c1096adfd" x="837.45" y="197.89" width="2.59" height="622.11"/>
    <rect id="uuid-bde96650-cc0c-4764-ab29-e3746d041d06" data-name="line-eight" class="uuid-5c016a58-238d-4c83-aae6-8c9c1096adfd" x="173.26" y="90.38" width="2.59" height="521.57"/>
    <rect id="uuid-93526029-a111-4e8b-b56d-67a3ed0c8a3b" data-name="line-seven" class="uuid-5c016a58-238d-4c83-aae6-8c9c1096adfd" x="647.68" y="197.89" width="2.59" height="622.11"/>
    <rect id="uuid-80c2e75a-6f59-4275-af96-c1b46d01ebbb" data-name="line-six" class="uuid-5c016a58-238d-4c83-aae6-8c9c1096adfd" x="363.03" y="90.38" width="2.59" height="521.57"/>
    <rect id="uuid-e0d1671b-8634-41f7-aa75-28dd5919c8cf" data-name="line-five" class="uuid-5c016a58-238d-4c83-aae6-8c9c1096adfd" x="457.91" y="197.89" width="2.59" height="622.11"/>
    <rect id="uuid-ea5b7d04-69ca-497e-a10b-dbae5c177e1c" data-name="line-four" class="uuid-5c016a58-238d-4c83-aae6-8c9c1096adfd" x="552.8" y="90.38" width="2.59" height="521.57"/>
    <rect id="uuid-830fd2c4-8cd5-4800-b107-d84de7edcaf5" data-name="line-three" class="uuid-5c016a58-238d-4c83-aae6-8c9c1096adfd" x="268.15" y="197.89" width="2.59" height="622.11"/>
    <rect id="uuid-0a6e5fbe-25b1-4676-9d61-26a5f1da034c" data-name="line-two" class="uuid-5c016a58-238d-4c83-aae6-8c9c1096adfd" x="742.57" y="90.38" width="2.59" height="521.57"/>
    <rect id="uuid-afc3e394-1d2b-4011-80cf-8c66491f03ce" data-name="line-one" class="uuid-5c016a58-238d-4c83-aae6-8c9c1096adfd" x="78.38" y="197.89" width="2.59" height="622.11"/>
    <rect id="uuid-fe51d4a7-522f-4b4b-a78a-3daed11e0729" data-name="line-horizontal-main" class="uuid-5c016a58-238d-4c83-aae6-8c9c1096adfd" x="0" y="555.4" width="915" height="2.59"/>
  </g>
  <path id="uuid-b2361df3-10ac-4c46-8416-36e8ac1f450a" data-name="chart" class="uuid-154c758a-fda7-475d-a598-e9d674aec64c" d="M838.85,230.87c-4.1,0-7.43,3.33-7.43,7.43,0,1.99.79,3.8,2.07,5.13l-86.55,126.68c-.88-.37-1.85-.58-2.87-.58-4.05,0-7.34,3.25-7.42,7.28l-80.38,14.78c-1.13-2.67-3.77-4.54-6.85-4.54-4.1,0-7.43,3.33-7.43,7.43,0,2.03.82,3.87,2.14,5.21l-87.38,132.74c-.83-.32-1.72-.5-2.67-.5-.81,0-1.58.13-2.31.37l-87.37-151.58c1.52-1.36,2.49-3.33,2.49-5.54,0-4.1-3.33-7.43-7.43-7.43s-7.43,3.33-7.43,7.43c0,1.18.28,2.3.78,3.3l-83.53,66.23c-1.29-1.07-2.94-1.72-4.75-1.72-.69,0-1.36.1-2,.28l-88.27-170.07c1.68-1.36,2.76-3.44,2.76-5.77,0-4.1-3.33-7.43-7.43-7.43s-7.43,3.33-7.43,7.43c0,2.59,1.33,4.87,3.33,6.2l-89.89,230.26c-.41-.07-.82-.11-1.25-.11-1.62,0-3.12.53-4.34,1.41l-83.72-76.83c.42-.93.66-1.96.66-3.04,0-4.1-3.33-7.43-7.43-7.43s-7.43,3.33-7.43,7.43,3.33,7.43,7.43,7.43c1.93,0,3.68-.74,5-1.94l83.47,76.59c-.67,1.12-1.06,2.42-1.06,3.81,0,4.1,3.33,7.43,7.43,7.43s7.43-3.33,7.43-7.43c0-2.61-1.35-4.91-3.39-6.23l89.88-230.23c.43.08.86.12,1.31.12.7,0,1.37-.1,2.01-.28l88.27,170.07c-1.69,1.36-2.76,3.44-2.76,5.78,0,4.1,3.33,7.43,7.43,7.43s7.43-3.33,7.43-7.43c0-1.21-.3-2.35-.81-3.37l83.5-66.21c1.3,1.1,2.97,1.77,4.81,1.77.82,0,1.61-.14,2.35-.39l87.36,151.56c-1.54,1.36-2.52,3.35-2.52,5.57,0,4.1,3.33,7.43,7.43,7.43s7.43-3.33,7.43-7.43c0-2.08-.86-3.96-2.24-5.31l87.35-132.69c.86.35,1.81.55,2.8.55,4.09,0,7.4-3.3,7.43-7.38l80.34-14.77c1.11,2.71,3.77,4.63,6.88,4.63,4.1,0,7.43-3.33,7.43-7.43,0-2-.8-3.82-2.09-5.16l86.54-126.67c.89.38,1.87.59,2.9.59,4.1,0,7.43-3.33,7.43-7.43s-3.33-7.43-7.43-7.43Z"/>
  <g id="uuid-bd8ae19f-7c1e-48e0-9111-d564495f222a" data-name="labels">
    <g id="uuid-6750b7aa-a531-467f-a331-57d01b598876" data-name="label-four">
      <path class="uuid-cd66d17d-8401-4216-8e3e-92e7a6693688" d="M748.52,4.82c-14.76,0-26.72,11.96-26.72,26.72s11.96,26.72,26.72,26.72,26.72-11.96,26.72-26.72-11.96-26.72-26.72-26.72ZM766.84,49.86c-4.69,4.69-11.17,7.59-18.32,7.59s-13.63-2.9-18.32-7.59c-4.69-4.69-7.59-11.16-7.59-18.32s2.9-13.63,7.59-18.32c4.69-4.69,11.17-7.59,18.32-7.59s13.63,2.9,18.32,7.59c4.69,4.69,7.59,11.16,7.59,18.32s-2.9,13.63-7.59,18.32Z"/>
      <path class="uuid-cd66d17d-8401-4216-8e3e-92e7a6693688" d="M763.9,25.04l-9.9-1.44-4.32-8.74c-.42-.84-.93-.98-1.35-.98-.84,0-1.3.84-1.4.98l-4.32,8.74-9.77,1.39c-.65.1-1.16.47-1.3.98-.18.56.05,1.11.6,1.68l6.98,6.74-1.63,9.63c-.05.23-.18.98.28,1.49.37.47,1.02.56,1.72.23l.05-.05,8.79-4.65,8.79,4.65c.33.18.65.28.93.28.37,0,.65-.14.88-.37.19-.19.37-.56.28-1.26l-1.68-9.96,7.11-6.93c.6-.61.6-1.11.51-1.49-.1-.28-.37-.79-1.26-.93ZM755.99,33.5c-.18.18-.28.47-.23.74l1.68,9.67-8.7-4.56c-.23-.14-.56-.14-.79,0l-8.7,4.56,1.67-9.67c.05-.28-.05-.56-.23-.74l-7.07-6.84,9.72-1.39c.28-.05.51-.23.65-.47l4.32-8.79,4.32,8.79c.14.23.37.42.65.47l9.72,1.39-7.01,6.84Z"/>
    </g>
    <g id="uuid-4b296b4b-0d6a-4aae-8c74-e02e6b475642" data-name="label-three">
      <path class="uuid-cd66d17d-8401-4216-8e3e-92e7a6693688" d="M556.38,36.21c-.16.16-.23.35-.23.55v4.89l-.24.24h-1.6l-.24-.24v-4.89c0-.2-.08-.39-.23-.55-.43-.35-.67-.9-.67-1.45,0-1.06.86-1.96,1.96-1.96s1.96.86,1.96,1.96c0,.55-.27,1.1-.7,1.45ZM555.13,31.4c-1.88,0-3.41,1.53-3.41,3.4,0,.86.31,1.68.9,2.31v4.62c0,.94.74,1.68,1.68,1.68h1.61c.94,0,1.68-.74,1.68-1.68v-4.66c.59-.63.9-1.45.9-2.31.05-1.88-1.48-3.37-3.36-3.37ZM565.97,42.82c0,2.04-1.64,3.68-3.68,3.68h-14.09c-2.04,0-3.68-1.65-3.68-3.68v-14.17c0-.24.2-.43.43-.43h20.55c.23,0,.43.19.43.43v14.17h.03ZM560.49,25.8v.98h-10.33v-.98c0-2.86,2.31-5.16,5.17-5.16s5.16,2.31,5.16,5.16ZM545.98,25.92c0-5.17,4.15-9.31,9.27-9.31s9.31,4.19,9.31,9.31v.9h-2.62v-.98c0-3.64-2.97-6.61-6.61-6.61s-6.61,2.97-6.61,6.61v.98h-2.74v-.9ZM566.01,26.86v-.94c0-5.95-4.81-10.76-10.76-10.76s-10.72,4.81-10.72,10.76v.94c-.82.19-1.45.94-1.45,1.8v14.13c0,2.82,2.31,5.13,5.13,5.13h14.09c2.82,0,5.13-2.31,5.13-5.13v-14.13c0-.86-.59-1.6-1.41-1.8Z"/>
      <path class="uuid-cd66d17d-8401-4216-8e3e-92e7a6693688" d="M581.56,31.54h.4c0-14.76-11.96-26.72-26.72-26.72s-26.72,11.96-26.72,26.72,11.96,26.72,26.72,26.72,26.72-11.96,26.72-26.72h-.81c0,7.16-2.9,13.63-7.59,18.32-4.69,4.69-11.17,7.59-18.32,7.59s-13.63-2.9-18.32-7.59c-4.69-4.69-7.59-11.16-7.59-18.32s2.9-13.63,7.59-18.32c4.69-4.69,11.17-7.59,18.32-7.59s13.63,2.9,18.32,7.59c4.69,4.69,7.59,11.16,7.59,18.32h.4Z"/>
    </g>
    <g id="uuid-8e2116be-1190-41b1-9575-80e58fc9b88a" data-name="label-two">
      <path class="uuid-cd66d17d-8401-4216-8e3e-92e7a6693688" d="M392.06,31.54h.4c0-14.76-11.96-26.72-26.72-26.72s-26.72,11.96-26.72,26.72,11.96,26.72,26.72,26.72,26.72-11.96,26.72-26.72h-.81c0,7.16-2.9,13.63-7.59,18.32-4.69,4.69-11.17,7.59-18.32,7.59s-13.63-2.9-18.32-7.59c-4.69-4.69-7.59-11.16-7.59-18.32s2.9-13.63,7.59-18.32c4.69-4.69,11.17-7.59,18.32-7.59s13.63,2.9,18.32,7.59c4.69,4.69,7.59,11.16,7.59,18.32h.4Z"/>
      <path class="uuid-cd66d17d-8401-4216-8e3e-92e7a6693688" d="M361.17,25.22c-.16.37-.62.53-1.03.37-.37-.16-.74-.25-1.15-.25-1.52,0-2.76,1.23-2.76,2.76,0,.53.16,1.07.45,1.52.25.33.12.82-.21,1.07l-.41.12c-.25,0-.49-.12-.62-.33-.45-.7-.7-1.53-.7-2.39,0-2.35,1.94-4.28,4.28-4.28.62,0,1.24.12,1.81.41.33.16.5.61.33.98ZM378.09,32.06c-1.15,1.77-2.55,3.29-3.87,4.73-2.51,2.68-5.1,5.23-7.57,7.53-.33.29-.62.41-.91.41-.37,0-.66-.21-.74-.29l-.12-.12-.37-.37-1.44-1.36c-1.44-1.44-2.97-2.88-4.4-4.36-2.14-2.18-3.66-3.95-4.98-5.76-1.03-1.48-1.56-2.92-1.56-4.41,0-2.55,1.07-4.53,3.34-5.97,1.19-.78,2.47-1.15,3.75-1.15.74,0,1.48.12,2.22.37,1.19.41,2.22,1.19,3.29,2.51.08.08.45.49,1.07.49.25,0,.66-.08,1.03-.49l.04-.08c.41-.45.78-.87,1.15-1.23,1.15-1.07,2.59-1.6,4.2-1.6,1.28,0,2.51.37,3.62,1.03,1.97,1.19,3.13,2.76,3.45,4.86.29,1.86-.08,3.58-1.2,5.27ZM380.81,26.59c-.41-2.51-1.81-4.53-4.2-5.93-1.36-.82-2.88-1.23-4.41-1.23-1.97,0-3.83.7-5.23,2.01-.45.41-.82.82-1.23,1.28-1.19-1.48-2.43-2.39-3.83-2.84-2.51-.82-4.98-.49-7.25.95-2.71,1.73-4.07,4.15-4.07,7.24,0,1.81.62,3.54,1.85,5.27,1.32,1.85,2.97,3.75,5.1,5.97,1.48,1.48,2.97,2.97,4.44,4.41l1.44,1.4.37.37.16.16c.29.25.95.66,1.77.66.7,0,1.36-.29,1.94-.82,2.47-2.35,5.15-4.9,7.66-7.62,1.32-1.4,2.8-3.09,4.03-4.94,1.32-2.01,1.77-4.15,1.45-6.34Z"/>
    </g>
    <g id="uuid-8159b4f4-bda6-4006-a728-cad6560fa6db" data-name="label-one">
      <path class="uuid-cd66d17d-8401-4216-8e3e-92e7a6693688" d="M200.56,31.54h.4c0-14.76-11.96-26.72-26.72-26.72s-26.72,11.96-26.72,26.72,11.96,26.72,26.72,26.72,26.72-11.96,26.72-26.72h-.81c0,7.16-2.9,13.63-7.59,18.32-4.69,4.69-11.17,7.59-18.32,7.59s-13.63-2.9-18.32-7.59c-4.69-4.69-7.59-11.16-7.59-18.32s2.9-13.63,7.59-18.32c4.69-4.69,11.17-7.59,18.32-7.59s13.63,2.9,18.32,7.59c4.69,4.69,7.59,11.16,7.59,18.32h.4Z"/>
      <path class="uuid-cd66d17d-8401-4216-8e3e-92e7a6693688" d="M174.25,26.23c-3,0-5.48,2.45-5.48,5.48s2.48,5.45,5.48,5.45,5.48-2.45,5.48-5.48-2.48-5.44-5.48-5.44ZM174.25,38.43c-3.72,0-6.72-3.03-6.72-6.72s3-6.75,6.72-6.75,6.72,3.03,6.72,6.72-3,6.75-6.72,6.75ZM169.33,42.97c.48.21.96.38,1.45.52.34-.1.62-.34.76-.65l.07-.14c.27-.48.96-1.17,2.14-1.21h.93c1.13.04,1.86.72,2.14,1.21l.07.14c.14.31.42.55.76.65.48-.14,1-.31,1.45-.52.17-.31.24-.65.14-1l-.04-.14c-.1-.55,0-1.51.86-2.31l.03-.03.04-.04c.24-.17.42-.34.62-.52l.04-.04.04-.04c.48-.38,1.03-.58,1.62-.58.34,0,.62.07.79.14l.14.04c.17.07.34.1.52.1s.34-.04.48-.1c.27-.42.55-.86.76-1.31-.03-.34-.24-.69-.52-.9l-.1-.1c-.45-.38-1-1.17-.83-2.31v-.07c.07-.24.1-.52.14-.79v-.11c.24-1.13,1.03-1.69,1.55-1.89l.14-.07c.34-.1.65-.34.83-.69-.07-.48-.14-.96-.24-1.41-.27-.27-.62-.42-1-.38h-.17c-.38,0-1.41-.14-2.1-1.24l-.04-.04c-.14-.27-.27-.48-.41-.72l-.04-.03-.04-.04c-.55-1.03-.31-1.97-.03-2.45l.07-.14c.21-.31.27-.69.17-1.07-.34-.31-.69-.62-1.07-.9-.38-.04-.76.1-1.03.34l-.14.1c-.04.24-.55.59-1.34.59-.27,0-.59-.03-.86-.14h-.07c-.24-.1-.52-.21-.76-.27h-.07c-1.07-.42-1.51-1.31-1.62-1.86l-.03-.14c-.04-.38-.24-.72-.55-.93-.52-.04-.86-.04-1.38,0-.31.21-.52.55-.55.93l-.04.14c-.1.55-.52,1.45-1.62,1.86h-.07c-.24.07-.52.17-.76.27h-.07c-.27.1-.55.14-.86.14-.79,0-1.31-.34-1.55-.55l-.14-.1c-.27-.27-.65-.42-1.03-.34-.38.27-.72.59-1.07.9-.1.38-.04.76.17,1.07l.07.14c.27.48.52,1.45-.04,2.45v.03l-.03.04c-.14.24-.27.45-.42.69l-.04.07c-.69,1.1-1.72,1.24-2.1,1.24h-.14c-.38-.03-.73.1-1,.38-.1.48-.21.96-.24,1.41.17.34.45.59.83.69l.14.07c.52.21,1.31.76,1.55,1.89v.1c.04.27.07.52.14.79v.07c.17,1.14-.38,1.93-.83,2.31l-.1.1c-.31.21-.48.55-.52.9.24.45.48.9.76,1.31.31.14.69.14,1.03-.03l.14-.04c.17-.07.45-.14.79-.14.59,0,1.13.21,1.62.58h.04l.07.04c.17.17.38.35.62.52l.04.04.04.04c.86.76.96,1.76.86,2.31l-.04.14c-.13.38-.06.72.11,1.03ZM177.74,44.8h-.14c-.72-.14-1.38-.62-1.72-1.27l-.07-.1c-.04-.07-.31-.59-1.1-.62h-.86c-.83,0-1.11.59-1.11.62l-.07.1c-.34.65-1,1.13-1.72,1.27h-.31c-.65-.17-1.34-.42-1.97-.72l-.24-.17c-.45-.59-.65-1.38-.48-2.1l.03-.14c0-.07.14-.65-.45-1.17l-.04-.03c-.21-.17-.42-.35-.62-.52-.27-.21-.55-.31-.86-.31-.24,0-.41.07-.41.07l-.14.03c-.69.27-1.52.24-2.17-.14l-.21-.21c-.38-.55-.72-1.14-1.03-1.76l-.07-.27c0-.76.38-1.52.96-1.97l.1-.07s.52-.41.42-1.21v-.04c-.07-.24-.1-.52-.14-.79v-.03c-.14-.79-.79-.96-.79-.96l-.14-.04c-.72-.24-1.34-.83-1.59-1.55l-.04-.27c.07-.62.17-1.28.34-1.93l.14-.24c.52-.62,1.28-.96,2.03-.93h.14c.17,0,.72-.04,1.07-.65l.03-.04c.1-.21.24-.45.42-.69l.04-.03c.38-.69.07-1.21.04-1.28l-.07-.1c-.42-.69-.52-1.52-.21-2.28l.14-.24c.45-.45.93-.86,1.45-1.21l.24-.1c.79-.17,1.62.07,2.2.59l.1.07s.31.27.76.27c.14,0,.31-.03.48-.07.27-.1.55-.21.79-.27.72-.27.83-.9.83-.96l.04-.1c.1-.79.59-1.52,1.31-1.9l.24-.07c.69-.04,1.17-.04,1.86,0l.24.07c.72.38,1.21,1.07,1.31,1.86l.04.14c0,.07.1.65.83.96.27.07.55.17.79.27.17.07.35.1.48.1.48,0,.76-.27.76-.27l.1-.07c.59-.52,1.41-.76,2.2-.59l.24.1c.52.38,1,.79,1.45,1.21l.14.24c.27.76.21,1.59-.21,2.28l-.07.1s-.34.59.04,1.27l.04.04c.14.24.27.45.42.69l.03.04c.35.59.9.65,1.07.65h.14c.76-.04,1.55.31,2.03.93l.14.24c.17.62.27,1.28.34,1.93l-.04.27c-.27.76-.86,1.31-1.59,1.55l-.14.04c-.07,0-.65.21-.79,1v.04c-.04.27-.07.55-.14.79v.04c-.1.69.42,1.07.42,1.07l.1.1c.59.48.96,1.21.96,1.96l-.07.27c-.27.59-.62,1.21-1.03,1.76l-.21.21c-.38.21-.79.31-1.24.31-.31,0-.65-.07-.93-.17l-.14-.04s-.17-.07-.42-.07c-.31,0-.59.1-.83.31h-.04c-.17.17-.38.34-.62.52l-.04.04c-.52.45-.52.93-.48,1.13l.04.21c.14.72-.04,1.48-.52,2.03l-.24.17c-.62.27-1.31.52-1.97.72l-.06.07Z"/>
    </g>
  </g>
</svg>